<?xml version="1.0" encoding="UTF-8"?>
<!DOCTYPE svg PUBLIC "-//W3C//DTD SVG 1.1//EN" "http://www.w3.org/Graphics/SVG/1.1/DTD/svg11.dtd">
<!-- Creator: CorelDRAW -->
<svg xmlns="http://www.w3.org/2000/svg" xml:space="preserve" width="517px" height="94px" version="1.1" style="shape-rendering:geometricPrecision; text-rendering:geometricPrecision; image-rendering:optimizeQuality; fill-rule:evenodd; clip-rule:evenodd"
viewBox="0 0 419.21 76.15"
 xmlns:xlink="http://www.w3.org/1999/xlink"
 xmlns:xodm="http://www.corel.com/coreldraw/odm/2003">
 <defs>
  <style type="text/css">
   <![CDATA[
    .str0 {stroke:#BBBBBB;stroke-width:0.77;stroke-miterlimit:22.9256}
    .fil0 {fill:none}
    .fil2 {fill:#2B2B2B;fill-rule:nonzero}
    .fil3 {fill:#6B6B6B;fill-rule:nonzero}
    .fil4 {fill:#8B8B8B;fill-rule:nonzero}
    .fil1 {fill:#FAFAFA;fill-rule:nonzero}
   ]]>
  </style>
 </defs>
 <g id="Layer_x0020_1">
  <metadata id="CorelCorpID_0Corel-Layer"/>
  <rect class="fil0" x="0.38" width="418.83" height="76.15"/>
  <g id="_1929243257568">
   <path class="fil1 str0" d="M28.37 10.22l0 8.59 0 0 0 0.02c0.01,0.25 0.03,0.59 0.09,0.97 0.12,0.75 0.4,1.69 1.03,2.3 0.6,0.58 1.04,0.85 1.55,0.96 0.26,0.05 0.52,0.07 0.82,0.07 0.14,0 0.31,0 0.49,-0.01l8.88 0 0 36.95c0,1.55 -0.64,3.04 -1.78,4.14 -1.14,1.1 -2.68,1.72 -4.3,1.72l-29.26 0c-1.61,0 -3.15,-0.62 -4.29,-1.72 -0.58,-0.73 -1.22,-2.21 -1.22,-3.76l0 -44.37c0,-1.55 0.64,-3.04 1.78,-4.14 1.14,-1.1 2.68,-1.72 4.3,-1.72l21.91 0 0 0z"/>
   <path class="fil1 str0" d="M30.79 19.94l0 -9.15 10.43 10.43 -9.15 0c0.4,-0.23 0.65,-0.65 0.65,-1.11 0,-0.71 -0.58,-1.29 -1.29,-1.29 -0.71,0 -1.28,0.58 -1.28,1.29 0,0.46 0.24,0.88 0.64,1.11l0 -1.28z"/>
   <path class="fil2" d="M21.12 32.09c-7.26,0 -13.14,5.89 -13.14,13.16 0,5.75 3.68,10.64 8.8,12.43 0.69,0.18 0.59,-0.31 0.59,-0.65l0 -2.28c-3.99,0.47 -4.15,-2.17 -4.42,-2.62 -0.54,-0.92 -1.82,-1.15 -1.44,-1.6 0.91,-0.46 1.84,0.12 2.91,1.71 0.77,1.15 2.29,0.95 3.05,0.76 -4.13,-0.74 -5.85,-3.26 -5.85,-6.26 0,-1.46 0.48,-2.8 1.42,-3.88 -0.6,-1.78 0.06,-3.3 0.15,-3.53 1.7,-0.15 3.48,1.22 3.61,1.33 0.97,-0.26 2.08,-0.4 3.32,-0.4 1.25,0 2.36,0.15 3.33,0.41 0.34,-0.25 1.98,-1.43 3.57,-1.29 0.08,0.23 0.72,1.72 0.16,3.47 0.95,1.08 1.43,2.44 1.43,3.89 0,3.01 -1.73,5.54 -5.87,6.27l0 3.31c0.02,0.26 0,0.52 0.44,0.52 5.2,-1.75 8.95,-6.67 8.95,-12.47 0,-7.28 -5.89,-13.16 -13.15,-13.16l2.14 0.88z"/>
   <path class="fil3" d="M6.44 19.95c0.23,0 0.41,0.06 0.54,0.2 0.13,0.13 0.2,0.3 0.2,0.5 0,0.2 -0.07,0.36 -0.2,0.5 -0.13,0.12 -0.31,0.19 -0.54,0.19 -0.23,0 -0.41,-0.07 -0.54,-0.19 -0.13,-0.13 -0.2,-0.3 -0.2,-0.5 0,-0.2 0.07,-0.37 0.2,-0.5 0.12,-0.14 0.3,-0.2 0.54,-0.2l0 0zm3.37 -4.31l0.04 0.59c0.39,-0.46 0.93,-0.7 1.62,-0.7 0.75,0 1.27,0.29 1.54,0.87 0.41,-0.58 0.99,-0.87 1.73,-0.87 0.62,0 1.08,0.18 1.38,0.52 0.31,0.35 0.46,0.85 0.47,1.52l0 3.71 -1.26 0 0 -3.67c0,-0.36 -0.08,-0.62 -0.24,-0.79 -0.15,-0.16 -0.41,-0.25 -0.77,-0.25 -0.29,0 -0.52,0.08 -0.71,0.24 -0.18,0.15 -0.3,0.35 -0.38,0.6l0.01 3.87 -1.27 0 0 -3.71c-0.01,-0.67 -0.35,-1 -1.01,-1 -0.51,0 -0.86,0.21 -1.08,0.62l0 4.09 -1.26 0 0 -5.64 1.19 0zm7.84 2.78c0,-0.87 0.2,-1.57 0.6,-2.09 0.41,-0.53 0.95,-0.8 1.62,-0.8 0.6,0 1.08,0.21 1.45,0.63l0 -2.89 1.26 0 0 8.01 -1.14 0 -0.07 -0.58c-0.37,0.46 -0.88,0.68 -1.51,0.68 -0.66,0 -1.19,-0.26 -1.6,-0.79 -0.41,-0.53 -0.61,-1.26 -0.61,-2.17l0 0zm1.27 0.11c0,0.57 0.1,1.02 0.32,1.34 0.22,0.32 0.54,0.48 0.94,0.48 0.52,0 0.9,-0.23 1.14,-0.69l0 -2.41c-0.24,-0.45 -0.61,-0.68 -1.13,-0.68 -0.41,0 -0.72,0.17 -0.94,0.49 -0.22,0.33 -0.34,0.81 -0.34,1.47l0.01 0z"/>
   <path class="fil4" d="M55.48 52.77l4.12 0 0 -10.39 5.86 0 5.55 10.39 4.69 0 -6.05 -11.11c3.35,-1.25 5.01,-4.05 5.01,-7.73 0,-5.06 -3.12,-8.61 -9.45,-8.61l-9.73 0 0 27.45zm4.12 -13.95l0 -9.95 5.17 0c4.07,0 5.75,1.95 5.75,5.06 0,3.09 -1.68,4.89 -5.7,4.89l-5.22 0zm20.07 13.95l17.28 0 0 -3.56 -13.16 0 0 -8.41 12.11 0 0 -3.55 -12.11 0 0 -8.36 13 0 0 -3.57 -17.12 0 0 27.45zm24.93 0l2.5 -7.26 10.67 0 2.49 7.26 4.37 0 -9.82 -27.45 -4.76 0 -9.83 27.45 4.38 0zm3.7 -10.75l4.03 -11.71 0.21 0 4.03 11.71 -8.27 0 0 0zm29.11 10.75c8.32,0 13.13,-5.19 13.13,-13.76 0,-8.54 -4.81,-13.69 -12.85,-13.69l-9.12 0 0 27.45 8.84 0zm-4.72 -3.62l0 -20.21 4.75 0c5.97,0 9.05,3.59 9.05,10.07 0,6.5 -3.08,10.14 -9.31,10.14l-4.49 0zm22.97 -23.83l0 27.45 3.92 0 0 -19.87 0.25 0 8.05 19.83 3.26 0 8.05 -19.82 0.25 0 0 19.86 3.92 0 0 -27.45 -5 0 -8.69 21.34 -0.32 0 -8.69 -21.34 -5 0zm33.69 27.45l17.27 0 0 -3.56 -13.15 0 0 -8.41 12.1 0 0 -3.55 -12.1 0 0 -8.36 12.99 0 0 -3.57 -17.11 0 0 27.45zm43.85 -28.63l-4.12 0 0 27.45 4.12 0 0 -27.45zm14.3 27.87c4.84,0 7.97,-2.92 8.41,-6.93l-3.87 0c-0.51,2.22 -2.23,3.54 -4.51,3.54 -3.37,0 -5.55,-2.83 -5.55,-7.32 0,-4.41 2.22,-7.18 5.55,-7.18 2.53,0 4.08,1.6 4.51,3.53l3.87 0c-0.42,-4.15 -3.79,-6.91 -8.45,-6.91 -5.77,0 -9.5,4.37 -9.5,10.65 0,6.21 3.6,10.62 9.54,10.62l0 0zm21.3 0c5.77,0 9.54,-4.25 9.54,-10.62 0,-6.4 -3.77,-10.65 -9.54,-10.65 -5.77,0 -9.54,4.25 -9.54,10.65 0,6.37 3.77,10.62 9.54,10.62zm0.01 -3.37c-3.77,0 -5.53,-3.31 -5.53,-7.26 0,-3.94 1.76,-7.29 5.53,-7.29 3.75,0 5.51,3.35 5.51,7.29 0,3.95 -1.76,7.26 -5.51,7.26zm17.97 -9.27c0,-3.29 2,-5.16 4.77,-5.16 2.71,0 4.35,1.78 4.35,4.77l0 12.61 3.98 0 0 -13.09c0,-5.1 -2.78,-7.76 -6.97,-7.76 -3.08,0 -5.09,1.43 -6.04,3.62l-0.25 0 0 -3.35 -3.83 0 0 20.58 3.99 0 0 -12.22zm33.79 -3.34c-0.83,-3.2 -3.32,-5.29 -7.75,-5.29 -4.62,0 -7.9,2.45 -7.9,6.1 0,2.92 1.76,4.86 5.6,5.72l3.46 0.76c1.98,0.44 2.9,1.33 2.9,2.62 0,1.59 -1.7,2.84 -4.31,2.84 -2.39,0 -3.92,-1.03 -4.4,-3.06l-3.85 0.59c0.67,3.65 3.68,5.7 8.28,5.7 4.94,0 8.37,-2.64 8.37,-6.37 0,-2.91 -1.84,-4.7 -5.6,-5.57l-3.25 -0.76c-2.26,-0.53 -3.23,-1.3 -3.22,-2.69 -0.01,-1.58 1.7,-2.71 3.96,-2.71 2.48,0 3.63,1.38 4.1,2.76l3.61 -0.64 0 0z"/>
  </g>
 </g>
</svg>
