<?xml version="1.0" encoding="UTF-8"?>
<!DOCTYPE svg PUBLIC "-//W3C//DTD SVG 1.1//EN" "http://www.w3.org/Graphics/SVG/1.1/DTD/svg11.dtd">
<!-- Creator: CorelDRAW -->
<svg xmlns="http://www.w3.org/2000/svg" xml:space="preserve" width="517px" height="94px" version="1.1" style="shape-rendering:geometricPrecision; text-rendering:geometricPrecision; image-rendering:optimizeQuality; fill-rule:evenodd; clip-rule:evenodd"
viewBox="0 0 419.45 76.26"
 xmlns:xlink="http://www.w3.org/1999/xlink"
 xmlns:xodm="http://www.corel.com/coreldraw/odm/2003">
 <defs>
  <style type="text/css">
   <![CDATA[
    .str0 {stroke:#BBBBBB;stroke-width:0.77;stroke-miterlimit:22.9256}
    .fil0 {fill:none}
    .fil2 {fill:#2B2B2B;fill-rule:nonzero}
    .fil3 {fill:#6B6B6B;fill-rule:nonzero}
    .fil4 {fill:#8B8B8B;fill-rule:nonzero}
    .fil1 {fill:#FAFAFA;fill-rule:nonzero}
   ]]>
  </style>
 </defs>
 <g id="Layer_x0020_1">
  <metadata id="CorelCorpID_0Corel-Layer"/>
  <rect class="fil0" x="-0.01" width="419.45" height="76.26"/>
  <g id="_2762794305616">
   <path class="fil1 str0" d="M42.78 10.24l0 8.59 0 0.01 0 0.02c0.01,0.25 0.03,0.59 0.09,0.97 0.12,0.75 0.4,1.69 1.03,2.3 0.6,0.58 1.04,0.85 1.56,0.96 0.25,0.06 0.52,0.07 0.81,0.07 0.15,0 0.31,0 0.49,0l8.9 0 0 37c0,1.56 -0.64,3.05 -1.78,4.15 -1.14,1.1 -2.69,1.72 -4.31,1.72l-29.3 0c-1.61,0 -3.16,-0.62 -4.3,-1.72 -0.58,-0.73 -1.22,-2.22 -1.22,-3.77l0 -44.44c0,-1.55 0.64,-3.04 1.78,-4.14 1.14,-1.1 2.69,-1.72 4.3,-1.72l21.95 0 0 0z"/>
   <path class="fil1 str0" d="M45.2 19.97l0 -9.16 10.45 10.44 -9.16 0c0.4,-0.23 0.64,-0.65 0.64,-1.11 0,-0.71 -0.57,-1.29 -1.28,-1.29 -0.71,0 -1.29,0.58 -1.29,1.29 0,0.46 0.25,0.88 0.64,1.11l0 -1.28z"/>
   <path class="fil2" d="M35.52 32.14c-7.27,0 -13.16,5.9 -13.16,13.18 0,5.76 3.68,10.65 8.81,12.45 0.7,0.17 0.59,-0.32 0.59,-0.66l0 -2.28c-3.99,0.47 -4.15,-2.18 -4.42,-2.62 -0.54,-0.92 -1.82,-1.16 -1.44,-1.6 0.91,-0.47 1.84,0.12 2.91,1.7 0.78,1.16 2.29,0.96 3.06,0.77 -4.14,-0.74 -5.86,-3.27 -5.86,-6.27 0,-1.46 0.48,-2.8 1.42,-3.89 -0.6,-1.78 0.06,-3.31 0.14,-3.53 1.71,-0.16 3.49,1.22 3.63,1.33 0.97,-0.26 2.08,-0.4 3.32,-0.4 1.25,0 2.36,0.15 3.34,0.41 0.33,-0.25 1.98,-1.44 3.56,-1.29 0.09,0.23 0.73,1.72 0.17,3.48 0.95,1.08 1.43,2.43 1.43,3.89 0,3.02 -1.73,5.55 -5.88,6.28l0 3.31c0.03,0.27 0,0.53 0.44,0.53 5.21,-1.76 8.96,-6.69 8.96,-12.5 0,-7.28 -5.89,-13.18 -13.16,-13.18l2.14 0.89z"/>
   <path class="fil3" d="M20.81 19.98c0.24,0 0.42,0.06 0.55,0.2 0.13,0.13 0.19,0.3 0.19,0.5 0,0.2 -0.06,0.36 -0.19,0.5 -0.13,0.13 -0.31,0.19 -0.55,0.19 -0.22,0 -0.4,-0.06 -0.53,-0.19 -0.13,-0.13 -0.2,-0.3 -0.2,-0.5 0,-0.2 0.07,-0.37 0.19,-0.5 0.13,-0.14 0.31,-0.2 0.55,-0.2l-0.01 0zm3.38 -4.32l0.04 0.59c0.4,-0.46 0.94,-0.69 1.63,-0.69 0.75,0 1.26,0.29 1.54,0.86 0.41,-0.57 0.99,-0.86 1.73,-0.86 0.62,0 1.08,0.17 1.39,0.51 0.3,0.35 0.46,0.86 0.46,1.53l0 3.71 -1.26 0 0 -3.67c0,-0.36 -0.08,-0.63 -0.24,-0.79 -0.15,-0.17 -0.41,-0.25 -0.77,-0.25 -0.29,0 -0.53,0.08 -0.71,0.23 -0.18,0.15 -0.31,0.36 -0.38,0.61l0.01 3.87 -1.27 0 0 -3.72c-0.02,-0.66 -0.36,-0.99 -1.01,-0.99 -0.51,0 -0.87,0.2 -1.08,0.62l0 4.09 -1.27 0 0 -5.65 1.19 0zm7.86 2.79c0,-0.87 0.2,-1.57 0.6,-2.1 0.4,-0.53 0.94,-0.79 1.62,-0.79 0.6,0 1.08,0.21 1.45,0.62l0 -2.89 1.26 0 0 8.02 -1.14 0 -0.07 -0.58c-0.37,0.46 -0.88,0.69 -1.51,0.69 -0.66,0 -1.19,-0.27 -1.6,-0.8 -0.41,-0.53 -0.61,-1.26 -0.61,-2.17l0 0zm1.26 0.11c0,0.57 0.11,1.02 0.33,1.34 0.22,0.32 0.54,0.48 0.94,0.48 0.52,0 0.9,-0.23 1.14,-0.69l0 -2.41c-0.24,-0.46 -0.61,-0.68 -1.13,-0.68 -0.41,0 -0.72,0.16 -0.95,0.49 -0.22,0.32 -0.33,0.81 -0.33,1.47l0 0z"/>
   <path class="fil4" d="M69.93 52.85l4.13 0 0 -10.4 5.87 0 5.55 10.4 4.7 0 -6.06 -11.13c3.35,-1.25 5.02,-4.05 5.02,-7.74 0,-5.06 -3.12,-8.62 -9.46,-8.62l-9.75 0 0 27.49zm4.13 -13.97l0 -9.96 5.18 0c4.07,0 5.75,1.94 5.75,5.06 0,3.1 -1.68,4.9 -5.7,4.9l-5.23 0zm20.1 13.97l17.3 0 0 -3.57 -13.18 0 0 -8.42 12.13 0 0 -3.55 -12.13 0 0 -8.38 13.02 0 0 -3.57 -17.14 0 0 27.49zm24.96 0l2.51 -7.28 10.68 0 2.49 7.28 4.38 0 -9.84 -27.49 -4.76 0 -9.84 27.49 4.38 0zm3.71 -10.77l4.03 -11.73 0.22 0 4.03 11.73 -8.28 0 0 0zm29.15 10.77c8.33,0 13.15,-5.2 13.15,-13.79 0,-8.55 -4.82,-13.7 -12.87,-13.7l-9.13 0 0 27.49 8.85 0zm-4.72 -3.63l0 -20.24 4.75 0c5.98,0 9.06,3.6 9.06,10.08 0,6.51 -3.08,10.16 -9.32,10.16l-4.49 0zm23 -23.86l0 27.49 3.92 0 0 -19.91 0.26 0 8.06 19.87 3.26 0 8.06 -19.85 0.25 0 0 19.89 3.93 0 0 -27.49 -5.01 0 -8.7 21.37 -0.32 0 -8.7 -21.37 -5.01 0zm33.74 27.49l17.3 0 0 -3.57 -13.18 0 0 -8.42 12.12 0 0 -3.55 -12.12 0 0 -8.38 13.02 0 0 -3.57 -17.14 0 0 27.49zm43.92 -28.67l-4.13 0 0 27.49 4.13 0 0 -27.49zm14.32 27.9c4.84,0 7.98,-2.92 8.42,-6.94l-3.88 0c-0.51,2.23 -2.23,3.55 -4.51,3.55 -3.38,0 -5.56,-2.83 -5.56,-7.33 0,-4.42 2.22,-7.19 5.56,-7.19 2.53,0 4.08,1.61 4.51,3.54l3.88 0c-0.43,-4.16 -3.8,-6.93 -8.46,-6.93 -5.78,0 -9.52,4.38 -9.52,10.67 0,6.22 3.6,10.63 9.56,10.63l0 0zm21.33 0c5.78,0 9.56,-4.25 9.56,-10.63 0,-6.41 -3.78,-10.67 -9.56,-10.67 -5.78,0 -9.56,4.26 -9.56,10.67 0,6.38 3.78,10.63 9.56,10.63zm0.01 -3.36c-3.78,0 -5.54,-3.32 -5.54,-7.28 0,-3.95 1.76,-7.3 5.54,-7.3 3.75,0 5.51,3.35 5.51,7.3 0,3.96 -1.76,7.28 -5.51,7.28zm17.99 -9.29c0,-3.29 2,-5.17 4.78,-5.17 2.71,0 4.35,1.78 4.35,4.78l0 12.63 3.99 0 0 -13.12c0,-5.1 -2.79,-7.77 -6.98,-7.77 -3.08,0 -5.1,1.44 -6.04,3.63l-0.26 0 0 -3.36 -3.83 0 0 20.62 3.99 0 0 -12.24zm33.84 -3.35c-0.83,-3.2 -3.32,-5.3 -7.75,-5.3 -4.64,0 -7.92,2.46 -7.92,6.11 0,2.93 1.76,4.87 5.61,5.73l3.47 0.77c1.97,0.44 2.89,1.32 2.89,2.61 0,1.6 -1.69,2.85 -4.31,2.85 -2.39,0 -3.92,-1.03 -4.4,-3.06l-3.86 0.59c0.67,3.65 3.68,5.7 8.29,5.7 4.95,0 8.38,-2.64 8.38,-6.37 0,-2.91 -1.84,-4.71 -5.6,-5.59l-3.26 -0.75c-2.26,-0.53 -3.23,-1.3 -3.22,-2.69 -0.01,-1.59 1.7,-2.72 3.97,-2.72 2.48,0 3.63,1.39 4.09,2.77l3.62 -0.64 0 -0.01z"/>
  </g>
 </g>
</svg>
